<?xml version='1.0' encoding='UTF-8' standalone='no'?>
<svg width="640pt" viewBox="0 0 640 320" height="320pt" xmlns="http://www.w3.org/2000/svg" xmlns:xlink="http://www.w3.org/1999/xlink">
 <title>gl2ps_renderer figure</title>
 <desc>
Creator: GL2PS 1.4.2, (C) 1999-2020 C. Geuzaine
For: Octave
CreationDate: Sun May 14 21:47:54 2023
</desc>
 <defs/>
 <polygon points="0,0 640,0 640,320 0,320" fill="#ffffff"/>
 <g>
  <polygon points="0,320 640,320 640,0 0,0" shape-rendering="crispEdges" fill="#ffffff"/>
  <clipPath id="cp00640320">
   <polygon points="0,320 640,320 640,0 0,0"/>
  </clipPath>
  <g clip-path="url(#cp00640320)">
   <polygon shape-rendering="crispEdges" points="83.2007,284.8 579.202,284.8 579.202,24 83.2007,24" fill="#ffffff"/>
   <polyline points="83.2007,284.8 83.2007,24" stroke-opacity="0.15" stroke-width="0.5" fill="none" stroke="#262626" stroke-dasharray="16,0" stroke-linecap="butt" stroke-linejoin="miter"/>
   <polyline points="182.4,284.8 182.4,24" stroke-opacity="0.15" stroke-width="0.5" fill="none" stroke="#262626" stroke-dasharray="16,0" stroke-linecap="butt" stroke-linejoin="miter"/>
   <polyline points="281.602,284.8 281.602,24" stroke-opacity="0.15" stroke-width="0.5" fill="none" stroke="#262626" stroke-dasharray="16,0" stroke-linecap="butt" stroke-linejoin="miter"/>
   <polyline points="380.801,284.8 380.801,24" stroke-opacity="0.15" stroke-width="0.5" fill="none" stroke="#262626" stroke-dasharray="16,0" stroke-linecap="butt" stroke-linejoin="miter"/>
   <polyline points="480,284.8 480,24" stroke-opacity="0.15" stroke-width="0.5" fill="none" stroke="#262626" stroke-dasharray="16,0" stroke-linecap="butt" stroke-linejoin="miter"/>
   <polyline points="579.202,284.8 579.202,24" stroke-opacity="0.15" stroke-width="0.5" fill="none" stroke="#262626" stroke-dasharray="16,0" stroke-linecap="butt" stroke-linejoin="miter"/>
   <polyline points="83.2007,284.8 83.2007,279.844" stroke-width="0.5" fill="none" stroke="#262626" stroke-linecap="butt" stroke-linejoin="miter"/>
   <polyline points="83.2007,24 83.2007,28.9562" stroke-width="0.5" fill="none" stroke="#262626" stroke-linecap="butt" stroke-linejoin="miter"/>
   <polyline points="182.4,284.8 182.4,279.844" stroke-width="0.5" fill="none" stroke="#262626" stroke-linecap="butt" stroke-linejoin="miter"/>
   <polyline points="182.4,24 182.4,28.9562" stroke-width="0.5" fill="none" stroke="#262626" stroke-linecap="butt" stroke-linejoin="miter"/>
   <polyline points="281.602,284.8 281.602,279.844" stroke-width="0.5" fill="none" stroke="#262626" stroke-linecap="butt" stroke-linejoin="miter"/>
   <polyline points="281.602,24 281.602,28.9562" stroke-width="0.5" fill="none" stroke="#262626" stroke-linecap="butt" stroke-linejoin="miter"/>
   <polyline points="380.801,284.8 380.801,279.844" stroke-width="0.5" fill="none" stroke="#262626" stroke-linecap="butt" stroke-linejoin="miter"/>
   <polyline points="380.801,24 380.801,28.9562" stroke-width="0.5" fill="none" stroke="#262626" stroke-linecap="butt" stroke-linejoin="miter"/>
   <polyline points="480,284.8 480,279.844" stroke-width="0.5" fill="none" stroke="#262626" stroke-linecap="butt" stroke-linejoin="miter"/>
   <polyline points="480,24 480,28.9562" stroke-width="0.5" fill="none" stroke="#262626" stroke-linecap="butt" stroke-linejoin="miter"/>
   <polyline points="579.202,284.8 579.202,279.844" stroke-width="0.5" fill="none" stroke="#262626" stroke-linecap="butt" stroke-linejoin="miter"/>
   <polyline points="579.202,24 579.202,28.9562" stroke-width="0.5" fill="none" stroke="#262626" stroke-linecap="butt" stroke-linejoin="miter"/>
   <text transform="translate(77.2,302.118) rotate(-0,6,-9)" font-weight="normal" font-style="normal" xml:space="preserve" font-family="FreeSans" font-size="11.0992">
    <tspan x="0 6 " fill="rgb(38,38,38)" y="-0">54</tspan>
   </text>
   <text transform="translate(171.9,302.118) rotate(-0,10.5,-9)" font-weight="normal" font-style="normal" xml:space="preserve" font-family="FreeSans" font-size="11.0992">
    <tspan x="0 6 12 15 " fill="rgb(38,38,38)" y="-0">54.2</tspan>
   </text>
   <text transform="translate(271.1,302.118) rotate(-0,10.5,-9)" font-weight="normal" font-style="normal" xml:space="preserve" font-family="FreeSans" font-size="11.0992">
    <tspan x="0 6 12 15 " fill="rgb(38,38,38)" y="-0">54.4</tspan>
   </text>
   <text transform="translate(370.3,302.118) rotate(-0,10.5,-9)" font-weight="normal" font-style="normal" xml:space="preserve" font-family="FreeSans" font-size="11.0992">
    <tspan x="0 6 12 15 " fill="rgb(38,38,38)" y="-0">54.6</tspan>
   </text>
   <text transform="translate(469.5,302.118) rotate(-0,10.5,-9)" font-weight="normal" font-style="normal" xml:space="preserve" font-family="FreeSans" font-size="11.0992">
    <tspan x="0 6 12 15 " fill="rgb(38,38,38)" y="-0">54.8</tspan>
   </text>
   <text transform="translate(573.2,302.118) rotate(-0,6,-9)" font-weight="normal" font-style="normal" xml:space="preserve" font-family="FreeSans" font-size="11.0992">
    <tspan x="0 6 " fill="rgb(38,38,38)" y="-0">55</tspan>
   </text>
   <polyline points="83.2007,284.8 579.202,284.8" stroke-opacity="0.15" stroke-width="0.5" fill="none" stroke="#0071bc" stroke-dasharray="16,0" stroke-linecap="butt" stroke-linejoin="miter"/>
   <polyline points="83.2007,241.333 579.202,241.333" stroke-opacity="0.15" stroke-width="0.5" fill="none" stroke="#0071bc" stroke-dasharray="16,0" stroke-linecap="butt" stroke-linejoin="miter"/>
   <polyline points="83.2007,197.867 579.202,197.867" stroke-opacity="0.15" stroke-width="0.5" fill="none" stroke="#0071bc" stroke-dasharray="16,0" stroke-linecap="butt" stroke-linejoin="miter"/>
   <polyline points="83.2007,154.4 579.202,154.4" stroke-opacity="0.15" stroke-width="0.5" fill="none" stroke="#0071bc" stroke-dasharray="16,0" stroke-linecap="butt" stroke-linejoin="miter"/>
   <polyline points="83.2007,110.933 579.202,110.933" stroke-opacity="0.15" stroke-width="0.5" fill="none" stroke="#0071bc" stroke-dasharray="16,0" stroke-linecap="butt" stroke-linejoin="miter"/>
   <polyline points="83.2007,67.4666 579.202,67.4666" stroke-opacity="0.15" stroke-width="0.5" fill="none" stroke="#0071bc" stroke-dasharray="16,0" stroke-linecap="butt" stroke-linejoin="miter"/>
   <polyline points="83.2007,24 579.202,24" stroke-opacity="0.15" stroke-width="0.5" fill="none" stroke="#0071bc" stroke-dasharray="16,0" stroke-linecap="butt" stroke-linejoin="miter"/>
   <polyline points="83.2007,284.8 88.1592,284.8" stroke-width="0.5" fill="none" stroke="#0071bc" stroke-linecap="butt" stroke-linejoin="miter"/>
   <polyline points="83.2007,241.333 88.1592,241.333" stroke-width="0.5" fill="none" stroke="#0071bc" stroke-linecap="butt" stroke-linejoin="miter"/>
   <polyline points="83.2007,197.867 88.1592,197.867" stroke-width="0.5" fill="none" stroke="#0071bc" stroke-linecap="butt" stroke-linejoin="miter"/>
   <polyline points="83.2007,154.4 88.1592,154.4" stroke-width="0.5" fill="none" stroke="#0071bc" stroke-linecap="butt" stroke-linejoin="miter"/>
   <polyline points="83.2007,110.933 88.1592,110.933" stroke-width="0.5" fill="none" stroke="#0071bc" stroke-linecap="butt" stroke-linejoin="miter"/>
   <polyline points="83.2007,67.4666 88.1592,67.4666" stroke-width="0.5" fill="none" stroke="#0071bc" stroke-linecap="butt" stroke-linejoin="miter"/>
   <polyline points="83.2007,24 88.1592,24" stroke-width="0.5" fill="none" stroke="#0071bc" stroke-linecap="butt" stroke-linejoin="miter"/>
   <text transform="translate(71.6504,289.3) rotate(-0,6,-4.5)" font-weight="normal" font-style="normal" xml:space="preserve" font-family="FreeSans" font-size="11.0992">
    <tspan x="0 " fill="rgb(0,113,188)" y="-0">2</tspan>
   </text>
   <text transform="translate(62.6504,245.833) rotate(-0,15,-4.5)" font-weight="normal" font-style="normal" xml:space="preserve" font-family="FreeSans" font-size="11.0992">
    <tspan x="0 6 9 " fill="rgb(0,113,188)" y="-0">2.5</tspan>
   </text>
   <text transform="translate(71.6504,202.367) rotate(-0,6,-4.5)" font-weight="normal" font-style="normal" xml:space="preserve" font-family="FreeSans" font-size="11.0992">
    <tspan x="0 " fill="rgb(0,113,188)" y="-0">3</tspan>
   </text>
   <text transform="translate(62.6504,158.9) rotate(-0,15,-4.5)" font-weight="normal" font-style="normal" xml:space="preserve" font-family="FreeSans" font-size="11.0992">
    <tspan x="0 6 9 " fill="rgb(0,113,188)" y="-0">3.5</tspan>
   </text>
   <text transform="translate(71.6504,115.433) rotate(-0,6,-4.5)" font-weight="normal" font-style="normal" xml:space="preserve" font-family="FreeSans" font-size="11.0992">
    <tspan x="0 " fill="rgb(0,113,188)" y="-0">4</tspan>
   </text>
   <text transform="translate(62.6504,71.9667) rotate(-0,15,-4.5)" font-weight="normal" font-style="normal" xml:space="preserve" font-family="FreeSans" font-size="11.0992">
    <tspan x="0 6 9 " fill="rgb(0,113,188)" y="-0">4.5</tspan>
   </text>
   <text transform="translate(71.6504,28.5) rotate(-0,6,-4.5)" font-weight="normal" font-style="normal" xml:space="preserve" font-family="FreeSans" font-size="11.0992">
    <tspan x="0 " fill="rgb(0,113,188)" y="-0">5</tspan>
   </text>
   <polyline points="83.2007,284.8 579.202,284.8" stroke-width="0.5" fill="none" stroke="#262626" stroke-dasharray="16,0" stroke-linecap="square" stroke-linejoin="miter"/>
   <polyline points="83.2007,24 579.202,24" stroke-width="0.5" fill="none" stroke="#262626" stroke-dasharray="16,0" stroke-linecap="square" stroke-linejoin="miter"/>
   <polyline points="83.2007,284.8 83.2007,24" stroke-width="0.5" fill="none" stroke="#0071bc" stroke-dasharray="16,0" stroke-linecap="square" stroke-linejoin="miter"/>
   <text transform="translate(23.1504,154.4) rotate(-90,34.5,0)" font-weight="normal" font-style="normal" xml:space="preserve" font-family="FreeSans" font-size="12.2091">
    <tspan x="0 8 15 21 24 30 37 44 47 50 56 66 " fill="rgb(0,113,188)" y="-3">Posição [cm]</tspan>
   </text>
   <text transform="translate(304.2,320.118) rotate(-0,27,-13)" font-weight="normal" font-style="normal" xml:space="preserve" font-family="FreeSans" font-size="12.2091">
    <tspan x="0 8 15 25 32 39 42 45 51 " fill="rgb(38,38,38)" y="-3">Tempo [s]</tspan>
   </text>
   <polyline points="82.7043,102.915 86.6772,112.091 90.7544,123.562 94.834,135.442 98.9136,147.732 102.993,158.383 107.07,169.854 111.15,180.095 115.229,187.879 119.309,194.434 123.389,199.759 127.468,202.217 131.548,203.036 135.627,203.446 139.705,203.036 143.784,203.036 147.864,203.446 151.941,203.446 156.021,203.446 160.1,203.446 164.18,203.446 168.259,203.446 172.336,203.446 176.416,203.446 180.496,203.036 184.575,202.627 188.655,201.398 192.734,200.579 196.814,198.53 200.891,195.253 204.971,189.927 209.048,184.602 213.127,175.999 217.207,165.347 221.287,153.877 225.366,142.816 229.446,129.297 233.525,115.778 237.603,102.669 241.682,92.0177 245.762,81.3664 249.841,73.1731 253.921,68.6668 258,66.2088 262.078,65.7991 266.157,66.6185 270.234,67.0282 274.314,67.4378 278.394,67.8475 282.473,67.8475 286.553,68.6668 290.632,69.4862 294.712,71.9441 298.789,74.8118 302.869,79.7278 306.948,84.6437 311.028,92.4273 315.107,101.44 319.185,110.452 323.264,121.513 327.344,132.574 331.421,143.226 335.5,154.696 339.58,164.938 343.66,173.95 347.739,180.505 351.819,185.011 355.898,187.879 359.978,189.108 364.055,189.518 368.135,189.108 372.214,189.108 376.294,189.518 380.371,189.518 384.451,189.518 388.53,189.518 392.61,189.518 396.687,189.518 400.767,189.518 404.846,189.108 408.926,189.108 413.005,188.289 417.085,187.469 421.165,185.421 425.244,182.963 429.321,179.276 433.401,173.541 437.478,166.167 441.558,157.564 445.637,148.961 449.717,137.49 453.796,125.2 457.874,111.681 461.953,99.3916 466.033,85.8727 470.112,73.1731 474.192,62.1122 478.271,54.7382 482.351,49.4127 486.428,47.3643 490.508,47.7739 494.587,49.003 498.665,50.6416 502.744,52.2803 506.824,54.3286 510.903,56.3769 514.983,59.6542 519.062,62.9315 523.14,67.8475 527.219,73.9924 531.299,81.3664 535.378,92.0177 539.458,103.488 543.538,114.959 547.615,128.478 551.694,142.406 555.771,153.877 559.851,165.757 563.931,174.77 568.01,180.095 572.09,183.782 576.169,184.602 579.696,184.602" stroke-width="0.5" fill="none" stroke="#0071bc" stroke-linecap="butt" stroke-linejoin="round"/>
  </g>
  <clipPath id="cp00640320">
   <polygon points="0,320 640,320 640,0 0,0"/>
  </clipPath>
  <g clip-path="url(#cp00640320)">
   <polyline points="83.2007,284.8 83.2007,279.844" stroke-width="0.5" fill="none" stroke="#262626" stroke-linecap="butt" stroke-linejoin="miter"/>
   <polyline points="182.4,284.8 182.4,279.844" stroke-width="0.5" fill="none" stroke="#262626" stroke-linecap="butt" stroke-linejoin="miter"/>
   <polyline points="281.602,284.8 281.602,279.844" stroke-width="0.5" fill="none" stroke="#262626" stroke-linecap="butt" stroke-linejoin="miter"/>
   <polyline points="380.801,284.8 380.801,279.844" stroke-width="0.5" fill="none" stroke="#262626" stroke-linecap="butt" stroke-linejoin="miter"/>
   <polyline points="480,284.8 480,279.844" stroke-width="0.5" fill="none" stroke="#262626" stroke-linecap="butt" stroke-linejoin="miter"/>
   <polyline points="579.202,284.8 579.202,279.844" stroke-width="0.5" fill="none" stroke="#262626" stroke-linecap="butt" stroke-linejoin="miter"/>
   <text transform="translate(77.2,302.118) rotate(-0,6,-9)" font-weight="normal" font-style="normal" xml:space="preserve" font-family="FreeSans" font-size="11.0992">
    <tspan x="0 6 " fill="rgb(38,38,38)" y="-0">54</tspan>
   </text>
   <text transform="translate(171.9,302.118) rotate(-0,10.5,-9)" font-weight="normal" font-style="normal" xml:space="preserve" font-family="FreeSans" font-size="11.0992">
    <tspan x="0 6 12 15 " fill="rgb(38,38,38)" y="-0">54.2</tspan>
   </text>
   <text transform="translate(271.1,302.118) rotate(-0,10.5,-9)" font-weight="normal" font-style="normal" xml:space="preserve" font-family="FreeSans" font-size="11.0992">
    <tspan x="0 6 12 15 " fill="rgb(38,38,38)" y="-0">54.4</tspan>
   </text>
   <text transform="translate(370.3,302.118) rotate(-0,10.5,-9)" font-weight="normal" font-style="normal" xml:space="preserve" font-family="FreeSans" font-size="11.0992">
    <tspan x="0 6 12 15 " fill="rgb(38,38,38)" y="-0">54.6</tspan>
   </text>
   <text transform="translate(469.5,302.118) rotate(-0,10.5,-9)" font-weight="normal" font-style="normal" xml:space="preserve" font-family="FreeSans" font-size="11.0992">
    <tspan x="0 6 12 15 " fill="rgb(38,38,38)" y="-0">54.8</tspan>
   </text>
   <text transform="translate(573.2,302.118) rotate(-0,6,-9)" font-weight="normal" font-style="normal" xml:space="preserve" font-family="FreeSans" font-size="11.0992">
    <tspan x="0 6 " fill="rgb(38,38,38)" y="-0">55</tspan>
   </text>
   <polyline points="579.202,284.8 574.241,284.8" stroke-width="0.5" fill="none" stroke="#d85218" stroke-linecap="butt" stroke-linejoin="miter"/>
   <polyline points="579.202,219.6 574.241,219.6" stroke-width="0.5" fill="none" stroke="#d85218" stroke-linecap="butt" stroke-linejoin="miter"/>
   <polyline points="579.202,154.4 574.241,154.4" stroke-width="0.5" fill="none" stroke="#d85218" stroke-linecap="butt" stroke-linejoin="miter"/>
   <polyline points="579.202,89.2 574.241,89.2" stroke-width="0.5" fill="none" stroke="#d85218" stroke-linecap="butt" stroke-linejoin="miter"/>
   <polyline points="579.202,24 574.241,24" stroke-width="0.5" fill="none" stroke="#d85218" stroke-linecap="butt" stroke-linejoin="miter"/>
   <text transform="translate(584.75,289.3) rotate(-0,-0,-4.5)" font-weight="normal" font-style="normal" xml:space="preserve" font-family="FreeSans" font-size="11.0992">
    <tspan x="0 4 " fill="rgb(216,82,24)" y="-0">-2</tspan>
   </text>
   <text transform="translate(584.75,224.1) rotate(-0,-0,-4.5)" font-weight="normal" font-style="normal" xml:space="preserve" font-family="FreeSans" font-size="11.0992">
    <tspan x="0 4 " fill="rgb(216,82,24)" y="-0">-1</tspan>
   </text>
   <text transform="translate(584.75,158.9) rotate(-0,-0,-4.5)" font-weight="normal" font-style="normal" xml:space="preserve" font-family="FreeSans" font-size="11.0992">
    <tspan x="0 " fill="rgb(216,82,24)" y="-0">0</tspan>
   </text>
   <text transform="translate(584.75,93.7) rotate(-0,-0,-4.5)" font-weight="normal" font-style="normal" xml:space="preserve" font-family="FreeSans" font-size="11.0992">
    <tspan x="0 " fill="rgb(216,82,24)" y="-0">1</tspan>
   </text>
   <text transform="translate(584.75,28.5) rotate(-0,-0,-4.5)" font-weight="normal" font-style="normal" xml:space="preserve" font-family="FreeSans" font-size="11.0992">
    <tspan x="0 " fill="rgb(216,82,24)" y="-0">2</tspan>
   </text>
   <polyline points="579.202,284.8 83.2007,284.8" stroke-width="0.5" fill="none" stroke="#262626" stroke-dasharray="16,0" stroke-linecap="square" stroke-linejoin="miter"/>
   <polyline points="579.202,284.8 579.202,24" stroke-width="0.5" fill="none" stroke="#d85218" stroke-dasharray="16,0" stroke-linecap="square" stroke-linejoin="miter"/>
   <text transform="translate(572.25,169.4) rotate(-90,27.5,-15)" font-weight="normal" font-style="normal" xml:space="preserve" font-family="FreeSans" font-size="12.2091">
    <tspan x="0 8 15 22 29 32 39 42 45 52 " fill="rgb(216,82,24)" y="-3">Ângulo [°]</tspan>
   </text>
   <polyline points="82.7043,188.483 86.6772,177.322 90.7544,165.861 94.834,160.13 98.9136,148.67 102.993,137.209 107.07,131.478 111.15,120.017 115.229,114.287 119.309,108.556 123.389,102.826 127.468,102.826 131.548,102.826 135.627,102.826 139.705,108.556 143.784,108.556 147.864,108.556 151.941,108.556 156.021,108.556 160.1,108.556 164.18,108.556 168.259,108.556 172.336,108.556 176.416,108.556 180.496,108.556 184.575,114.287 188.655,114.287 192.734,114.287 196.814,114.287 200.891,120.017 204.971,120.017 209.048,125.748 213.127,137.209 217.207,142.939 221.287,154.4 225.366,165.861 229.446,177.322 233.525,188.783 237.603,200.244 241.682,211.705 245.762,217.435 249.841,228.896 253.921,228.896 258,228.896 262.078,228.896 266.157,228.896 270.234,228.896 274.314,223.166 278.394,223.166 282.473,223.166 286.553,223.166 290.632,223.166 294.712,217.435 298.789,211.705 302.869,211.705 306.948,205.974 311.028,200.244 315.107,188.783 319.185,177.322 323.264,171.591 327.344,160.13 331.421,148.67 335.5,137.209 339.58,131.478 343.66,120.017 347.739,114.287 351.819,114.287 355.898,114.287 359.978,108.556 364.055,108.556 368.135,114.287 372.214,114.287 376.294,114.287 380.371,114.287 384.451,114.287 388.53,114.287 392.61,114.287 396.687,114.287 400.767,114.287 404.846,114.287 408.926,114.287 413.005,114.287 417.085,120.017 421.165,120.017 425.244,120.017 429.321,125.748 433.401,131.478 437.478,137.209 441.558,142.939 445.637,154.4 449.717,160.13 453.796,171.591 457.874,183.052 461.953,194.513 466.033,205.974 470.112,217.435 474.192,228.896 478.271,234.627 482.351,240.357 486.428,240.357 490.508,240.357 494.587,234.627 498.665,234.627 502.744,234.627 506.824,228.896 510.903,228.896 514.983,223.166 519.062,217.435 523.14,217.435 527.219,211.705 531.299,200.244 535.378,194.513 539.458,183.052 543.538,171.591 547.615,160.13 551.694,142.939 555.771,131.478 559.851,120.017 563.931,114.287 568.01,108.556 572.09,108.556 576.169,108.556 579.696,108.556" stroke-width="0.5" fill="none" stroke="#d85218" stroke-linecap="butt" stroke-linejoin="round"/>
  </g>
  <clipPath id="cp00640320">
   <polygon points="0,320 640,320 640,0 0,0"/>
  </clipPath>
  <g clip-path="url(#cp00640320)">
   <polygon shape-rendering="crispEdges" points="505.157,68.0215 571.191,68.0215 571.191,32.0086 505.157,32.0086" fill="#ffffff"/>
   <polyline points="505.157,68.0215 571.191,68.0215" stroke-width="0.5" fill="none" stroke="#262626" stroke-dasharray="16,0" stroke-linecap="square" stroke-linejoin="miter"/>
   <polyline points="505.157,32.0086 571.191,32.0086" stroke-width="0.5" fill="none" stroke="#262626" stroke-dasharray="16,0" stroke-linecap="square" stroke-linejoin="miter"/>
   <polyline points="505.157,68.0215 505.157,32.0086" stroke-width="0.5" fill="none" stroke="#262626" stroke-dasharray="16,0" stroke-linecap="square" stroke-linejoin="miter"/>
   <polyline points="571.191,68.0215 571.191,32.0086" stroke-width="0.5" fill="none" stroke="#262626" stroke-dasharray="16,0" stroke-linecap="square" stroke-linejoin="miter"/>
   <polyline points="509.161,41.5129 529.183,41.5129" stroke-width="0.5" fill="none" stroke="#0071bc" stroke-linecap="butt" stroke-linejoin="round"/>
   <text transform="translate(533.187,47.0129) rotate(-0,-0,-5.5)" font-weight="normal" font-style="normal" xml:space="preserve" font-family="FreeSans" font-size="9.98926">
    <tspan x="0 7 12 17 19 24 29 " fill="rgb(0,0,0)" y="-2">Posição</tspan>
   </text>
   <polyline points="509.161,57.5172 529.183,57.5172" stroke-width="0.5" fill="none" stroke="#d85218" stroke-linecap="butt" stroke-linejoin="round"/>
   <text transform="translate(533.187,64.0172) rotate(-0,-0,-6.5)" font-weight="normal" font-style="normal" xml:space="preserve" font-family="FreeSans" font-size="9.98926">
    <tspan x="0 7 12 17 22 24 " fill="rgb(0,0,0)" y="-2">Ângulo</tspan>
   </text>
  </g>
 </g>
</svg>
