<?xml version='1.0' encoding='UTF-8' standalone='no'?>
<svg width="640pt" xmlns:xlink="http://www.w3.org/1999/xlink" height="320pt" viewBox="0 0 640 320" xmlns="http://www.w3.org/2000/svg">
 <title>gl2ps_renderer figure</title>
 <desc>
Creator: GL2PS 1.4.2, (C) 1999-2020 C. Geuzaine
For: Octave
CreationDate: Mon May 15 10:42:41 2023
</desc>
 <defs/>
 <polygon points="0,0 640,0 640,320 0,320" fill="#ffffff"/>
 <g>
  <polygon points="0,320 640,320 640,0 0,0" shape-rendering="crispEdges" fill="#ffffff"/>
  <clipPath id="cp00640320">
   <polygon points="0,320 640,320 640,0 0,0"/>
  </clipPath>
  <g clip-path="url(#cp00640320)">
   <polygon points="83.2007,284.8 579.202,284.8 579.202,23.9999 83.2007,23.9999" shape-rendering="crispEdges" fill="#ffffff"/>
   <polyline stroke-opacity="0.15" points="83.2007,284.8 83.2007,23.9999" stroke-linejoin="miter" stroke-width="0.5" stroke-linecap="butt" stroke-dasharray="16,0" fill="none" stroke="#262626"/>
   <polyline stroke-opacity="0.15" points="182.4,284.8 182.4,23.9999" stroke-linejoin="miter" stroke-width="0.5" stroke-linecap="butt" stroke-dasharray="16,0" fill="none" stroke="#262626"/>
   <polyline stroke-opacity="0.15" points="281.602,284.8 281.602,23.9999" stroke-linejoin="miter" stroke-width="0.5" stroke-linecap="butt" stroke-dasharray="16,0" fill="none" stroke="#262626"/>
   <polyline stroke-opacity="0.15" points="380.801,284.8 380.801,23.9999" stroke-linejoin="miter" stroke-width="0.5" stroke-linecap="butt" stroke-dasharray="16,0" fill="none" stroke="#262626"/>
   <polyline stroke-opacity="0.15" points="480,284.8 480,23.9999" stroke-linejoin="miter" stroke-width="0.5" stroke-linecap="butt" stroke-dasharray="16,0" fill="none" stroke="#262626"/>
   <polyline stroke-opacity="0.15" points="579.202,284.8 579.202,23.9999" stroke-linejoin="miter" stroke-width="0.5" stroke-linecap="butt" stroke-dasharray="16,0" fill="none" stroke="#262626"/>
   <polyline points="83.2007,284.8 83.2007,279.844" stroke-linejoin="miter" stroke-width="0.5" stroke-linecap="butt" fill="none" stroke="#262626"/>
   <polyline points="83.2007,23.9999 83.2007,28.9562" stroke-linejoin="miter" stroke-width="0.5" stroke-linecap="butt" fill="none" stroke="#262626"/>
   <polyline points="182.4,284.8 182.4,279.844" stroke-linejoin="miter" stroke-width="0.5" stroke-linecap="butt" fill="none" stroke="#262626"/>
   <polyline points="182.4,23.9999 182.4,28.9562" stroke-linejoin="miter" stroke-width="0.5" stroke-linecap="butt" fill="none" stroke="#262626"/>
   <polyline points="281.602,284.8 281.602,279.844" stroke-linejoin="miter" stroke-width="0.5" stroke-linecap="butt" fill="none" stroke="#262626"/>
   <polyline points="281.602,23.9999 281.602,28.9562" stroke-linejoin="miter" stroke-width="0.5" stroke-linecap="butt" fill="none" stroke="#262626"/>
   <polyline points="380.801,284.8 380.801,279.844" stroke-linejoin="miter" stroke-width="0.5" stroke-linecap="butt" fill="none" stroke="#262626"/>
   <polyline points="380.801,23.9999 380.801,28.9562" stroke-linejoin="miter" stroke-width="0.5" stroke-linecap="butt" fill="none" stroke="#262626"/>
   <polyline points="480,284.8 480,279.844" stroke-linejoin="miter" stroke-width="0.5" stroke-linecap="butt" fill="none" stroke="#262626"/>
   <polyline points="480,23.9999 480,28.9562" stroke-linejoin="miter" stroke-width="0.5" stroke-linecap="butt" fill="none" stroke="#262626"/>
   <polyline points="579.202,284.8 579.202,279.844" stroke-linejoin="miter" stroke-width="0.5" stroke-linecap="butt" fill="none" stroke="#262626"/>
   <polyline points="579.202,23.9999 579.202,28.9562" stroke-linejoin="miter" stroke-width="0.5" stroke-linecap="butt" fill="none" stroke="#262626"/>
   <text font-style="normal" xml:space="preserve" transform="translate(77.2,302.118) rotate(-0,6,-9)" font-weight="normal" font-family="FreeSans" font-size="11.0992">
    <tspan x="0 6 " y="-0" fill="rgb(38,38,38)">54</tspan>
   </text>
   <text font-style="normal" xml:space="preserve" transform="translate(171.9,302.118) rotate(-0,10.5,-9)" font-weight="normal" font-family="FreeSans" font-size="11.0992">
    <tspan x="0 6 12 15 " y="-0" fill="rgb(38,38,38)">54.2</tspan>
   </text>
   <text font-style="normal" xml:space="preserve" transform="translate(271.1,302.118) rotate(-0,10.5,-9)" font-weight="normal" font-family="FreeSans" font-size="11.0992">
    <tspan x="0 6 12 15 " y="-0" fill="rgb(38,38,38)">54.4</tspan>
   </text>
   <text font-style="normal" xml:space="preserve" transform="translate(370.3,302.118) rotate(-0,10.5,-9)" font-weight="normal" font-family="FreeSans" font-size="11.0992">
    <tspan x="0 6 12 15 " y="-0" fill="rgb(38,38,38)">54.6</tspan>
   </text>
   <text font-style="normal" xml:space="preserve" transform="translate(469.5,302.118) rotate(-0,10.5,-9)" font-weight="normal" font-family="FreeSans" font-size="11.0992">
    <tspan x="0 6 12 15 " y="-0" fill="rgb(38,38,38)">54.8</tspan>
   </text>
   <text font-style="normal" xml:space="preserve" transform="translate(573.2,302.118) rotate(-0,6,-9)" font-weight="normal" font-family="FreeSans" font-size="11.0992">
    <tspan x="0 6 " y="-0" fill="rgb(38,38,38)">55</tspan>
   </text>
   <polyline stroke-opacity="0.15" points="83.2007,284.8 579.202,284.8" stroke-linejoin="miter" stroke-width="0.5" stroke-linecap="butt" stroke-dasharray="16,0" fill="none" stroke="#0071bc"/>
   <polyline stroke-opacity="0.15" points="83.2007,241.333 579.202,241.333" stroke-linejoin="miter" stroke-width="0.5" stroke-linecap="butt" stroke-dasharray="16,0" fill="none" stroke="#0071bc"/>
   <polyline stroke-opacity="0.15" points="83.2007,197.867 579.202,197.867" stroke-linejoin="miter" stroke-width="0.5" stroke-linecap="butt" stroke-dasharray="16,0" fill="none" stroke="#0071bc"/>
   <polyline stroke-opacity="0.15" points="83.2007,154.4 579.202,154.4" stroke-linejoin="miter" stroke-width="0.5" stroke-linecap="butt" stroke-dasharray="16,0" fill="none" stroke="#0071bc"/>
   <polyline stroke-opacity="0.15" points="83.2007,110.933 579.202,110.933" stroke-linejoin="miter" stroke-width="0.5" stroke-linecap="butt" stroke-dasharray="16,0" fill="none" stroke="#0071bc"/>
   <polyline stroke-opacity="0.15" points="83.2007,67.4666 579.202,67.4666" stroke-linejoin="miter" stroke-width="0.5" stroke-linecap="butt" stroke-dasharray="16,0" fill="none" stroke="#0071bc"/>
   <polyline stroke-opacity="0.15" points="83.2007,23.9999 579.202,23.9999" stroke-linejoin="miter" stroke-width="0.5" stroke-linecap="butt" stroke-dasharray="16,0" fill="none" stroke="#0071bc"/>
   <polyline points="83.2007,284.8 88.1592,284.8" stroke-linejoin="miter" stroke-width="0.5" stroke-linecap="butt" fill="none" stroke="#0071bc"/>
   <polyline points="83.2007,241.333 88.1592,241.333" stroke-linejoin="miter" stroke-width="0.5" stroke-linecap="butt" fill="none" stroke="#0071bc"/>
   <polyline points="83.2007,197.867 88.1592,197.867" stroke-linejoin="miter" stroke-width="0.5" stroke-linecap="butt" fill="none" stroke="#0071bc"/>
   <polyline points="83.2007,154.4 88.1592,154.4" stroke-linejoin="miter" stroke-width="0.5" stroke-linecap="butt" fill="none" stroke="#0071bc"/>
   <polyline points="83.2007,110.933 88.1592,110.933" stroke-linejoin="miter" stroke-width="0.5" stroke-linecap="butt" fill="none" stroke="#0071bc"/>
   <polyline points="83.2007,67.4666 88.1592,67.4666" stroke-linejoin="miter" stroke-width="0.5" stroke-linecap="butt" fill="none" stroke="#0071bc"/>
   <polyline points="83.2007,23.9999 88.1592,23.9999" stroke-linejoin="miter" stroke-width="0.5" stroke-linecap="butt" fill="none" stroke="#0071bc"/>
   <text font-style="normal" xml:space="preserve" transform="translate(71.6504,289.3) rotate(-0,6,-4.5)" font-weight="normal" font-family="FreeSans" font-size="11.0992">
    <tspan x="0 " y="-0" fill="rgb(0,113,188)">3</tspan>
   </text>
   <text font-style="normal" xml:space="preserve" transform="translate(62.6504,245.833) rotate(-0,15,-4.5)" font-weight="normal" font-family="FreeSans" font-size="11.0992">
    <tspan x="0 6 9 " y="-0" fill="rgb(0,113,188)">3.5</tspan>
   </text>
   <text font-style="normal" xml:space="preserve" transform="translate(71.6504,202.367) rotate(-0,6,-4.5)" font-weight="normal" font-family="FreeSans" font-size="11.0992">
    <tspan x="0 " y="-0" fill="rgb(0,113,188)">4</tspan>
   </text>
   <text font-style="normal" xml:space="preserve" transform="translate(62.6504,158.9) rotate(-0,15,-4.5)" font-weight="normal" font-family="FreeSans" font-size="11.0992">
    <tspan x="0 6 9 " y="-0" fill="rgb(0,113,188)">4.5</tspan>
   </text>
   <text font-style="normal" xml:space="preserve" transform="translate(71.6504,115.433) rotate(-0,6,-4.5)" font-weight="normal" font-family="FreeSans" font-size="11.0992">
    <tspan x="0 " y="-0" fill="rgb(0,113,188)">5</tspan>
   </text>
   <text font-style="normal" xml:space="preserve" transform="translate(62.6504,71.9667) rotate(-0,15,-4.5)" font-weight="normal" font-family="FreeSans" font-size="11.0992">
    <tspan x="0 6 9 " y="-0" fill="rgb(0,113,188)">5.5</tspan>
   </text>
   <text font-style="normal" xml:space="preserve" transform="translate(71.6504,28.5) rotate(-0,6,-4.5)" font-weight="normal" font-family="FreeSans" font-size="11.0992">
    <tspan x="0 " y="-0" fill="rgb(0,113,188)">6</tspan>
   </text>
   <polyline points="83.2007,284.8 579.202,284.8" stroke-linejoin="miter" stroke-width="0.5" stroke-linecap="square" stroke-dasharray="16,0" fill="none" stroke="#262626"/>
   <polyline points="83.2007,23.9999 579.202,23.9999" stroke-linejoin="miter" stroke-width="0.5" stroke-linecap="square" stroke-dasharray="16,0" fill="none" stroke="#262626"/>
   <polyline points="83.2007,284.8 83.2007,23.9999" stroke-linejoin="miter" stroke-width="0.5" stroke-linecap="square" stroke-dasharray="16,0" fill="none" stroke="#0071bc"/>
   <text font-style="normal" xml:space="preserve" transform="translate(23.1504,154.4) rotate(-90,34.5,0)" font-weight="normal" font-family="FreeSans" font-size="12.2091">
    <tspan x="0 8 15 21 24 30 37 44 47 50 56 66 " y="-3" fill="rgb(0,113,188)">Posição [cm]</tspan>
   </text>
   <text font-style="normal" xml:space="preserve" transform="translate(304.2,320.118) rotate(-0,27,-13)" font-weight="normal" font-family="FreeSans" font-size="12.2091">
    <tspan x="0 8 15 25 32 39 42 45 51 " y="-3" fill="rgb(38,38,38)">Tempo [s]</tspan>
   </text>
   <polyline points="82.7043,173.636 86.6772,174.035 90.7544,174.035 94.834,174.035 98.9136,174.854 102.993,176.083 107.07,179.77 111.15,185.096 115.229,193.289 119.309,203.94 123.389,219.098 127.468,237.533 131.548,255.558 135.627,276.861 137.228,285.061" stroke-linejoin="round" stroke-width="0.5" stroke-linecap="butt" fill="none" stroke="#0071bc"/>
   <polyline points="247.661,285.061 249.841,281.777 253.921,276.861 258,272.354 262.078,269.077 266.157,268.258 270.234,268.258 274.314,268.667 278.394,268.667 282.473,268.667 286.553,269.077 290.632,269.896 294.712,271.535 298.789,273.993 302.869,278.09 306.948,283.825 307.827,285.061" stroke-linejoin="round" stroke-width="0.5" stroke-linecap="butt" fill="none" stroke="#0071bc"/>
   <polyline points="424.553,285.061 425.244,284.644 427.317,285.061" stroke-linejoin="round" stroke-width="0.5" stroke-linecap="butt" fill="none" stroke="#0071bc"/>
   <polyline points="556.674,285.061 559.851,279.319 563.931,273.993 568.01,271.945 572.09,272.354 576.169,273.993 579.696,275.763" stroke-linejoin="round" stroke-width="0.5" stroke-linecap="butt" fill="none" stroke="#0071bc"/>
  </g>
  <clipPath id="cp00640320">
   <polygon points="0,320 640,320 640,0 0,0"/>
  </clipPath>
  <g clip-path="url(#cp00640320)">
   <polyline points="83.2007,284.8 83.2007,279.844" stroke-linejoin="miter" stroke-width="0.5" stroke-linecap="butt" fill="none" stroke="#262626"/>
   <polyline points="182.4,284.8 182.4,279.844" stroke-linejoin="miter" stroke-width="0.5" stroke-linecap="butt" fill="none" stroke="#262626"/>
   <polyline points="281.602,284.8 281.602,279.844" stroke-linejoin="miter" stroke-width="0.5" stroke-linecap="butt" fill="none" stroke="#262626"/>
   <polyline points="380.801,284.8 380.801,279.844" stroke-linejoin="miter" stroke-width="0.5" stroke-linecap="butt" fill="none" stroke="#262626"/>
   <polyline points="480,284.8 480,279.844" stroke-linejoin="miter" stroke-width="0.5" stroke-linecap="butt" fill="none" stroke="#262626"/>
   <polyline points="579.202,284.8 579.202,279.844" stroke-linejoin="miter" stroke-width="0.5" stroke-linecap="butt" fill="none" stroke="#262626"/>
   <text font-style="normal" xml:space="preserve" transform="translate(77.2,302.118) rotate(-0,6,-9)" font-weight="normal" font-family="FreeSans" font-size="11.0992">
    <tspan x="0 6 " y="-0" fill="rgb(38,38,38)">54</tspan>
   </text>
   <text font-style="normal" xml:space="preserve" transform="translate(171.9,302.118) rotate(-0,10.5,-9)" font-weight="normal" font-family="FreeSans" font-size="11.0992">
    <tspan x="0 6 12 15 " y="-0" fill="rgb(38,38,38)">54.2</tspan>
   </text>
   <text font-style="normal" xml:space="preserve" transform="translate(271.1,302.118) rotate(-0,10.5,-9)" font-weight="normal" font-family="FreeSans" font-size="11.0992">
    <tspan x="0 6 12 15 " y="-0" fill="rgb(38,38,38)">54.4</tspan>
   </text>
   <text font-style="normal" xml:space="preserve" transform="translate(370.3,302.118) rotate(-0,10.5,-9)" font-weight="normal" font-family="FreeSans" font-size="11.0992">
    <tspan x="0 6 12 15 " y="-0" fill="rgb(38,38,38)">54.6</tspan>
   </text>
   <text font-style="normal" xml:space="preserve" transform="translate(469.5,302.118) rotate(-0,10.5,-9)" font-weight="normal" font-family="FreeSans" font-size="11.0992">
    <tspan x="0 6 12 15 " y="-0" fill="rgb(38,38,38)">54.8</tspan>
   </text>
   <text font-style="normal" xml:space="preserve" transform="translate(573.2,302.118) rotate(-0,6,-9)" font-weight="normal" font-family="FreeSans" font-size="11.0992">
    <tspan x="0 6 " y="-0" fill="rgb(38,38,38)">55</tspan>
   </text>
   <polyline points="579.202,284.8 574.241,284.8" stroke-linejoin="miter" stroke-width="0.5" stroke-linecap="butt" fill="none" stroke="#d85218"/>
   <polyline points="579.202,219.6 574.241,219.6" stroke-linejoin="miter" stroke-width="0.5" stroke-linecap="butt" fill="none" stroke="#d85218"/>
   <polyline points="579.202,154.4 574.241,154.4" stroke-linejoin="miter" stroke-width="0.5" stroke-linecap="butt" fill="none" stroke="#d85218"/>
   <polyline points="579.202,89.2 574.241,89.2" stroke-linejoin="miter" stroke-width="0.5" stroke-linecap="butt" fill="none" stroke="#d85218"/>
   <polyline points="579.202,24 574.241,24" stroke-linejoin="miter" stroke-width="0.5" stroke-linecap="butt" fill="none" stroke="#d85218"/>
   <text font-style="normal" xml:space="preserve" transform="translate(584.75,289.3) rotate(-0,-0,-4.5)" font-weight="normal" font-family="FreeSans" font-size="11.0992">
    <tspan x="0 4 " y="-0" fill="rgb(216,82,24)">-2</tspan>
   </text>
   <text font-style="normal" xml:space="preserve" transform="translate(584.75,224.1) rotate(-0,-0,-4.5)" font-weight="normal" font-family="FreeSans" font-size="11.0992">
    <tspan x="0 4 " y="-0" fill="rgb(216,82,24)">-1</tspan>
   </text>
   <text font-style="normal" xml:space="preserve" transform="translate(584.75,158.9) rotate(-0,-0,-4.5)" font-weight="normal" font-family="FreeSans" font-size="11.0992">
    <tspan x="0 " y="-0" fill="rgb(216,82,24)">0</tspan>
   </text>
   <text font-style="normal" xml:space="preserve" transform="translate(584.75,93.7) rotate(-0,-0,-4.5)" font-weight="normal" font-family="FreeSans" font-size="11.0992">
    <tspan x="0 " y="-0" fill="rgb(216,82,24)">1</tspan>
   </text>
   <text font-style="normal" xml:space="preserve" transform="translate(584.75,28.5) rotate(-0,-0,-4.5)" font-weight="normal" font-family="FreeSans" font-size="11.0992">
    <tspan x="0 " y="-0" fill="rgb(216,82,24)">2</tspan>
   </text>
   <polyline points="579.202,284.8 83.2007,284.8" stroke-linejoin="miter" stroke-width="0.5" stroke-linecap="square" stroke-dasharray="16,0" fill="none" stroke="#262626"/>
   <polyline points="579.202,284.8 579.202,24" stroke-linejoin="miter" stroke-width="0.5" stroke-linecap="square" stroke-dasharray="16,0" fill="none" stroke="#d85218"/>
   <text font-style="normal" xml:space="preserve" transform="translate(572.25,169.4) rotate(-90,27.5,-15)" font-weight="normal" font-family="FreeSans" font-size="12.2091">
    <tspan x="0 8 15 22 29 32 39 42 45 52 " y="-3" fill="rgb(216,82,24)">Ângulo [°]</tspan>
   </text>
   <polyline points="82.7043,246.087 86.6772,246.087 90.7544,246.087 94.834,246.087 98.9136,251.818 102.993,251.818 107.07,246.087 111.15,246.087 115.229,240.357 119.309,228.896 123.389,217.435 127.468,200.244 131.548,183.052 135.627,165.861 139.705,148.67 143.784,131.478 147.864,114.287 151.941,102.826 156.021,97.0953 160.1,91.3648 164.18,91.3648 168.259,91.3648 172.336,91.3648 176.416,97.0953 180.496,97.0953 184.575,102.826 188.655,102.826 192.734,108.556 196.814,114.287 200.891,114.287 204.971,120.017 209.048,125.748 213.127,131.478 217.207,137.209 221.287,148.67 225.366,154.4 229.446,165.861 233.525,171.591 237.603,183.052 241.682,188.783 245.762,194.513 249.841,200.244 253.921,205.974 258,211.705 262.078,217.435 266.157,217.435 270.234,217.435 274.314,217.435 278.394,217.435 282.473,217.435 286.553,217.435 290.632,217.435 294.712,217.435 298.789,217.435 302.869,211.705 306.948,205.974 311.028,200.244 315.107,194.513 319.185,188.783 323.264,171.591 327.344,160.13 331.421,142.939 335.5,125.748 339.58,108.556 343.66,91.3648 347.739,79.9039 351.819,68.443 355.898,62.7125 359.978,62.7125 364.055,62.7125 368.135,62.7125 372.214,68.443 376.294,79.9039 380.371,85.6344 384.451,97.0953 388.53,114.287 392.61,125.748 396.687,142.939 400.767,160.13 404.846,177.322 408.926,194.513 413.005,205.974 417.085,217.435 421.165,223.166 425.244,228.896 429.321,223.166 433.401,223.166 437.478,217.435 441.558,217.435 445.637,205.974 449.717,200.244 453.796,188.783 457.874,171.591 461.953,160.13 466.033,148.67 470.112,131.478 474.192,114.287 478.271,102.826 482.351,97.0953 486.428,91.3648 490.508,85.6344 494.587,85.6344 498.665,91.3648 502.744,97.0953 506.824,97.0953 510.903,102.826 514.983,108.556 519.062,114.287 523.14,125.748 527.219,137.209 531.299,148.67 535.378,154.4 539.458,171.591 543.538,183.052 547.615,200.244 551.694,211.705 555.771,223.166 559.851,228.896 563.931,234.627 568.01,234.627 572.09,234.627 576.169,228.896 579.696,228.896" stroke-linejoin="round" stroke-width="0.5" stroke-linecap="butt" fill="none" stroke="#d85218"/>
  </g>
  <clipPath id="cp00640320">
   <polygon points="0,320 640,320 640,0 0,0"/>
  </clipPath>
  <g clip-path="url(#cp00640320)">
   <polygon points="505.157,68.0215 571.191,68.0215 571.191,32.0086 505.157,32.0086" shape-rendering="crispEdges" fill="#ffffff"/>
   <polyline points="505.157,68.0215 571.191,68.0215" stroke-linejoin="miter" stroke-width="0.5" stroke-linecap="square" stroke-dasharray="16,0" fill="none" stroke="#262626"/>
   <polyline points="505.157,32.0086 571.191,32.0086" stroke-linejoin="miter" stroke-width="0.5" stroke-linecap="square" stroke-dasharray="16,0" fill="none" stroke="#262626"/>
   <polyline points="505.157,68.0215 505.157,32.0086" stroke-linejoin="miter" stroke-width="0.5" stroke-linecap="square" stroke-dasharray="16,0" fill="none" stroke="#262626"/>
   <polyline points="571.191,68.0215 571.191,32.0086" stroke-linejoin="miter" stroke-width="0.5" stroke-linecap="square" stroke-dasharray="16,0" fill="none" stroke="#262626"/>
   <polyline points="509.161,41.5129 529.183,41.5129" stroke-linejoin="round" stroke-width="0.5" stroke-linecap="butt" fill="none" stroke="#0071bc"/>
   <text font-style="normal" xml:space="preserve" transform="translate(533.187,47.0129) rotate(-0,-0,-5.5)" font-weight="normal" font-family="FreeSans" font-size="9.98926">
    <tspan x="0 7 12 17 19 24 29 " y="-2" fill="rgb(0,0,0)">Posição</tspan>
   </text>
   <polyline points="509.161,57.5172 529.183,57.5172" stroke-linejoin="round" stroke-width="0.5" stroke-linecap="butt" fill="none" stroke="#d85218"/>
   <text font-style="normal" xml:space="preserve" transform="translate(533.187,64.0172) rotate(-0,-0,-6.5)" font-weight="normal" font-family="FreeSans" font-size="9.98926">
    <tspan x="0 7 12 17 22 24 " y="-2" fill="rgb(0,0,0)">Ângulo</tspan>
   </text>
  </g>
 </g>
</svg>
